{
  "accessors": [
    {
      "bufferView": 2,
      "componentType": 5126,
      "count": 36,
      "max": [
        0.7292150259017944,
        0.8633049726486206,
        0.7972049713134766
      ],
      "min": [
        0.535647988319397,
        -0.731827974319458,
        -0.7979289889335632
      ],
      "type": "VEC3"
    },
    {
      "bufferView": 2,
      "byteOffset": 432,
      "componentType": 5126,
      "count": 36,
      "max": [
        0.9978609085083008,
        0.23285990953445435,
        0.23285990953445435
      ],
      "min": [
        0.9576538801193237,
        -0.25421208143234253,
        -0.23285990953445435
      ],
      "type": "VEC3"
    },
    {
      "bufferView": 3,
      "componentType": 5126,
      "count": 36,
      "max": [
        0.23294450342655182,
        -0.9671216011047363,
        0.02433786913752556,
        1.0
      ],
      "min": [
        -0.2543012201786041,
        -0.9992477893829346,
        -0.021829698234796524,
        1.0
      ],
      "type": "VEC4"
    },
    {
      "bufferView": 1,
      "componentType": 5126,
      "count": 36,
      "max": [
        0.9427400231361389,
        0.9415820240974426
      ],
      "min": [
        0.058448001742362976,
        0.05837300047278404
      ],
      "type": "VEC2"
    },
    {
      "bufferView": 0,
      "componentType": 5125,
      "count": 150,
      "type": "SCALAR"
    },
    {
      "bufferView": 2,
      "byteOffset": 864,
      "componentType": 5126,
      "count": 51,
      "max": [
        0.6783159971237183,
        -0.7765049934387207,
        0.4303539991378784
      ],
      "min": [
        0.6689289808273315,
        -0.8213819861412048,
        0.3876749873161316
      ],
      "type": "VEC3"
    },
    {
      "bufferView": 2,
      "byteOffset": 1476,
      "componentType": 5126,
      "count": 51,
      "max": [
        1.0,
        0.9510578513145447,
        1.0
      ],
      "min": [
        0.0,
        -0.9510578513145447,
        -1.0
      ],
      "type": "VEC3"
    },
    {
      "bufferView": 3,
      "byteOffset": 576,
      "componentType": 5126,
      "count": 51,
      "max": [
        0.999811589717865,
        0.3283839225769043,
        0.0,
        1.0
      ],
      "min": [
        -0.9998089671134949,
        -0.6849749088287354,
        -0.9510577917098999,
        1.0
      ],
      "type": "VEC4"
    },
    {
      "bufferView": 1,
      "byteOffset": 288,
      "componentType": 5126,
      "count": 51,
      "max": [
        0.5264580249786377,
        0.9078009724617004
      ],
      "min": [
        0.4894289970397949,
        0.8725810050964355
      ],
      "type": "VEC2"
    },
    {
      "bufferView": 0,
      "byteOffset": 600,
      "componentType": 5125,
      "count": 90,
      "type": "SCALAR"
    },
    {
      "bufferView": 2,
      "byteOffset": 2088,
      "componentType": 5126,
      "count": 51,
      "max": [
        0.6783159971237183,
        -0.7765049934387207,
        0.21932700276374817
      ],
      "min": [
        0.6689289808273315,
        -0.8213819861412048,
        0.17664800584316254
      ],
      "type": "VEC3"
    },
    {
      "bufferView": 2,
      "byteOffset": 2700,
      "componentType": 5126,
      "count": 51,
      "max": [
        1.0,
        0.9510578513145447,
        1.0
      ],
      "min": [
        0.0,
        -0.9510578513145447,
        -1.0
      ],
      "type": "VEC3"
    },
    {
      "bufferView": 3,
      "byteOffset": 1392,
      "componentType": 5126,
      "count": 51,
      "max": [
        0.9998089075088501,
        0.1254466027021408,
        0.29622524976730347,
        1.0
      ],
      "min": [
        -0.9998118877410889,
        -0.8467209339141846,
        -0.7125051617622375,
        1.0
      ],
      "type": "VEC4"
    },
    {
      "bufferView": 1,
      "byteOffset": 696,
      "componentType": 5126,
      "count": 51,
      "max": [
        0.6289860010147095,
        0.9079170227050781
      ],
      "min": [
        0.5934929847717285,
        0.8741570115089417
      ],
      "type": "VEC2"
    },
    {
      "bufferView": 0,
      "byteOffset": 960,
      "componentType": 5125,
      "count": 90,
      "type": "SCALAR"
    },
    {
      "bufferView": 2,
      "byteOffset": 3312,
      "componentType": 5126,
      "count": 51,
      "max": [
        0.6783159971237183,
        -0.7765049934387207,
        0.290365993976593
      ],
      "min": [
        0.6689289808273315,
        -0.8213819861412048,
        0.24768699705600739
      ],
      "type": "VEC3"
    },
    {
      "bufferView": 2,
      "byteOffset": 3924,
      "componentType": 5126,
      "count": 51,
      "max": [
        1.0,
        0.9510578513145447,
        1.0
      ],
      "min": [
        0.0,
        -0.9510578513145447,
        -1.0
      ],
      "type": "VEC3"
    },
    {
      "bufferView": 3,
      "byteOffset": 2208,
      "componentType": 5126,
      "count": 51,
      "max": [
        0.9998073577880859,
        0.1254509687423706,
        0.2961690127849579,
        1.0
      ],
      "min": [
        -0.999810516834259,
        -0.846646249294281,
        -0.7125771045684814,
        1.0
      ],
      "type": "VEC4"
    },
    {
      "bufferView": 1,
      "byteOffset": 1104,
      "componentType": 5126,
      "count": 51,
      "max": [
        0.6737949848175049,
        0.9064350128173828
      ],
      "min": [
        0.6420459747314453,
        0.8762379884719849
      ],
      "type": "VEC2"
    },
    {
      "bufferView": 0,
      "byteOffset": 1320,
      "componentType": 5125,
      "count": 90,
      "type": "SCALAR"
    },
    {
      "bufferView": 2,
      "byteOffset": 4536,
      "componentType": 5126,
      "count": 51,
      "max": [
        0.6841340065002441,
        -0.7486889958381653,
        0.7242869734764099
      ],
      "min": [
        0.6631100177764893,
        -0.8491979837417603,
        0.6286979913711548
      ],
      "type": "VEC3"
    },
    {
      "bufferView": 2,
      "byteOffset": 5148,
      "componentType": 5126,
      "count": 51,
      "max": [
        1.0,
        0.9510565400123596,
        1.0
      ],
      "min": [
        0.0,
        -0.9510565400123596,
        -1.0
      ],
      "type": "VEC3"
    },
    {
      "bufferView": 3,
      "byteOffset": 3024,
      "componentType": 5126,
      "count": 51,
      "max": [
        0.9998005628585815,
        0.0697823241353035,
        0.40832534432411194,
        1.0
      ],
      "min": [
        -0.9998003840446472,
        -0.9564517736434937,
        -0.5487495064735413,
        1.0
      ],
      "type": "VEC4"
    },
    {
      "bufferView": 1,
      "byteOffset": 1512,
      "componentType": 5126,
      "count": 51,
      "max": [
        0.4714739918708801,
        0.9108669757843018
      ],
      "min": [
        0.43290799856185913,
        0.8703219890594482
      ],
      "type": "VEC2"
    },
    {
      "bufferView": 0,
      "byteOffset": 1680,
      "componentType": 5125,
      "count": 90,
      "type": "SCALAR"
    },
    {
      "bufferView": 2,
      "byteOffset": 5760,
      "componentType": 5126,
      "count": 51,
      "max": [
        0.6783159971237183,
        -0.7765049934387207,
        0.5013930201530457
      ],
      "min": [
        0.6689289808273315,
        -0.8213819861412048,
        0.45871299505233765
      ],
      "type": "VEC3"
    },
    {
      "bufferView": 2,
      "byteOffset": 6372,
      "componentType": 5126,
      "count": 51,
      "max": [
        1.0,
        0.9510578513145447,
        1.0
      ],
      "min": [
        0.0,
        -0.9510578513145447,
        -1.0
      ],
      "type": "VEC3"
    },
    {
      "bufferView": 3,
      "byteOffset": 3840,
      "componentType": 5126,
      "count": 51,
      "max": [
        0.9998086094856262,
        0.32849302887916565,
        0.0,
        1.0
      ],
      "min": [
        -0.9998086094856262,
        -0.6849088668823242,
        -0.9510578513145447,
        1.0
      ],
      "type": "VEC4"
    },
    {
      "bufferView": 1,
      "byteOffset": 1920,
      "componentType": 5126,
      "count": 51,
      "max": [
        0.577368974685669,
        0.9061170220375061
      ],
      "min": [
        0.5416640043258667,
        0.8721569776535034
      ],
      "type": "VEC2"
    },
    {
      "bufferView": 0,
      "byteOffset": 2040,
      "componentType": 5125,
      "count": 90,
      "type": "SCALAR"
    },
    {
      "bufferView": 2,
      "byteOffset": 6984,
      "componentType": 5126,
      "count": 381,
      "max": [
        0.6691210269927979,
        0.9064499735832214,
        1.0
      ],
      "min": [
        -0.7292150259017944,
        -0.9064499735832214,
        -1.0
      ],
      "type": "VEC3"
    },
    {
      "bufferView": 2,
      "byteOffset": 11556,
      "componentType": 5126,
      "count": 381,
      "max": [
        1.0,
        1.0,
        0.9999726414680481
      ],
      "min": [
        -1.0,
        -1.0,
        -0.9999726414680481
      ],
      "type": "VEC3"
    },
    {
      "bufferView": 3,
      "byteOffset": 4656,
      "componentType": 5126,
      "count": 381,
      "max": [
        0.9999887347221375,
        0.9999727010726929,
        1.0,
        1.0
      ],
      "min": [
        -0.9830531477928162,
        -0.9999727010726929,
        -1.0,
        -1.0
      ],
      "type": "VEC4"
    },
    {
      "bufferView": 1,
      "byteOffset": 2328,
      "componentType": 5126,
      "count": 381,
      "max": [
        0.9676399827003479,
        0.9866009950637817
      ],
      "min": [
        0.022029999643564224,
        0.030716000124812126
      ],
      "type": "VEC2"
    },
    {
      "bufferView": 0,
      "byteOffset": 2400,
      "componentType": 5125,
      "count": 1203,
      "type": "SCALAR"
    }
  ],
  "asset": {
    "extras": {
      "author": "matoteus (https://sketchfab.com/matoteus)",
      "license": "CC-BY-4.0 (http://creativecommons.org/licenses/by/4.0/)",
      "source": "https://sketchfab.com/3d-models/lowpoly-old-tv-1ab0b494e6e4424eb629ad1963356461",
      "title": "Lowpoly Old TV"
    },
    "generator": "Sketchfab-12.66.0",
    "version": "2.0"
  },
  "bufferViews": [
    {
      "buffer": 0,
      "byteLength": 7212,
      "name": "floatBufferViews",
      "target": 34963
    },
    {
      "buffer": 0,
      "byteLength": 5376,
      "byteOffset": 7212,
      "byteStride": 8,
      "name": "floatBufferViews",
      "target": 34962
    },
    {
      "buffer": 0,
      "byteLength": 16128,
      "byteOffset": 12588,
      "byteStride": 12,
      "name": "floatBufferViews",
      "target": 34962
    },
    {
      "buffer": 0,
      "byteLength": 10752,
      "byteOffset": 28716,
      "byteStride": 16,
      "name": "floatBufferViews",
      "target": 34962
    }
  ],
  "buffers": [
    {
      "byteLength": 39468,
      "uri": "scene.bin"
    }
  ],
  "images": [
    {
      "uri": "textures/initialShadingGroup_baseColor.jpeg"
    },
    {
      "uri": "textures/initialShadingGroup_metallicRoughness.png"
    },
    {
      "uri": "textures/initialShadingGroup_normal.png"
    },
    {
      "uri": "textures/lambert2SG_baseColor.jpeg"
    },
    {
      "uri": "textures/lambert2SG_metallicRoughness.png"
    },
    {
      "uri": "textures/lambert2SG_normal.png"
    }
  ],
  "materials": [
    {
      "doubleSided": true,
      "name": "initialShadingGroup",
      "normalTexture": {
        "index": 2
      },
      "occlusionTexture": {
        "index": 1
      },
      "pbrMetallicRoughness": {
        "baseColorTexture": {
          "index": 0
        },
        "metallicRoughnessTexture": {
          "index": 1
        }
      }
    },
    {
      "doubleSided": true,
      "name": "lambert2SG",
      "normalTexture": {
        "index": 5
      },
      "occlusionTexture": {
        "index": 4
      },
      "pbrMetallicRoughness": {
        "baseColorTexture": {
          "index": 3
        },
        "metallicRoughnessTexture": {
          "index": 4
        }
      }
    }
  ],
  "meshes": [
    {
      "name": "defaultMaterial",
      "primitives": [
        {
          "attributes": {
            "NORMAL": 1,
            "POSITION": 0,
            "TANGENT": 2,
            "TEXCOORD_0": 3
          },
          "indices": 4,
          "material": 1,
          "mode": 4
        }
      ]
    },
    {
      "name": "defaultMaterial",
      "primitives": [
        {
          "attributes": {
            "NORMAL": 6,
            "POSITION": 5,
            "TANGENT": 7,
            "TEXCOORD_0": 8
          },
          "indices": 9,
          "material": 0,
          "mode": 4
        }
      ]
    },
    {
      "name": "defaultMaterial",
      "primitives": [
        {
          "attributes": {
            "NORMAL": 11,
            "POSITION": 10,
            "TANGENT": 12,
            "TEXCOORD_0": 13
          },
          "indices": 14,
          "material": 0,
          "mode": 4
        }
      ]
    },
    {
      "name": "defaultMaterial",
      "primitives": [
        {
          "attributes": {
            "NORMAL": 16,
            "POSITION": 15,
            "TANGENT": 17,
            "TEXCOORD_0": 18
          },
          "indices": 19,
          "material": 0,
          "mode": 4
        }
      ]
    },
    {
      "name": "defaultMaterial",
      "primitives": [
        {
          "attributes": {
            "NORMAL": 21,
            "POSITION": 20,
            "TANGENT": 22,
            "TEXCOORD_0": 23
          },
          "indices": 24,
          "material": 0,
          "mode": 4
        }
      ]
    },
    {
      "name": "defaultMaterial",
      "primitives": [
        {
          "attributes": {
            "NORMAL": 26,
            "POSITION": 25,
            "TANGENT": 27,
            "TEXCOORD_0": 28
          },
          "indices": 29,
          "material": 0,
          "mode": 4
        }
      ]
    },
    {
      "name": "defaultMaterial",
      "primitives": [
        {
          "attributes": {
            "NORMAL": 31,
            "POSITION": 30,
            "TANGENT": 32,
            "TEXCOORD_0": 33
          },
          "indices": 34,
          "material": 0,
          "mode": 4
        }
      ]
    }
  ],
  "nodes": [
    {
      "children": [
        1
      ],
      "matrix": [
        1.0,
        0.0,
        0.0,
        0.0,
        0.0,
        2.220446049250313e-16,
        -1.0,
        0.0,
        0.0,
        1.0,
        2.220446049250313e-16,
        0.0,
        0.0,
        0.0,
        0.0,
        1.0
      ],
      "name": "Sketchfab_model"
    },
    {
      "children": [
        2,
        4,
        6,
        8,
        10,
        12,
        14
      ],
      "matrix": [
        1.0,
        0.0,
        0.0,
        0.0,
        0.0,
        -4.371139006309477e-08,
        0.999999999999999,
        0.0,
        0.0,
        -0.999999999999999,
        -4.371139006309477e-08,
        0.0,
        0.0,
        0.0,
        0.0,
        1.0
      ],
      "name": "Collada visual scene group"
    },
    {
      "children": [
        3
      ],
      "name": "g"
    },
    {
      "mesh": 0,
      "name": "defaultMaterial"
    },
    {
      "children": [
        5
      ],
      "name": "g"
    },
    {
      "mesh": 1,
      "name": "defaultMaterial"
    },
    {
      "children": [
        7
      ],
      "name": "g"
    },
    {
      "mesh": 2,
      "name": "defaultMaterial"
    },
    {
      "children": [
        9
      ],
      "name": "g"
    },
    {
      "mesh": 3,
      "name": "defaultMaterial"
    },
    {
      "children": [
        11
      ],
      "name": "g"
    },
    {
      "mesh": 4,
      "name": "defaultMaterial"
    },
    {
      "children": [
        13
      ],
      "name": "g"
    },
    {
      "mesh": 5,
      "name": "defaultMaterial"
    },
    {
      "children": [
        15
      ],
      "name": "g"
    },
    {
      "mesh": 6,
      "name": "defaultMaterial"
    }
  ],
  "samplers": [
    {
      "magFilter": 9729,
      "minFilter": 9987,
      "wrapS": 10497,
      "wrapT": 10497
    }
  ],
  "scene": 0,
  "scenes": [
    {
      "name": "Sketchfab_Scene",
      "nodes": [
        0
      ]
    }
  ],
  "textures": [
    {
      "sampler": 0,
      "source": 0
    },
    {
      "sampler": 0,
      "source": 1
    },
    {
      "sampler": 0,
      "source": 2
    },
    {
      "sampler": 0,
      "source": 3
    },
    {
      "sampler": 0,
      "source": 4
    },
    {
      "sampler": 0,
      "source": 5
    }
  ]
}
